<mxfile host="app.diagrams.net" agent="Mozilla/5.0 (Windows NT 10.0; Win64; x64) AppleWebKit/537.36 (KHTML, like Gecko) Chrome/133.0.0.0 Safari/537.36" version="24.8.8">
  <diagram name="Page-1" id="soqZ9jfFHdg1zhOJI0YF">
    <mxGraphModel dx="1672" dy="940" grid="1" gridSize="10" guides="1" tooltips="1" connect="1" arrows="1" fold="1" page="1" pageScale="1" pageWidth="850" pageHeight="1100" math="0" shadow="0">
      <root>
        <mxCell id="0" />
        <mxCell id="1" parent="0" />
        <mxCell id="6VcAdiX-hEe_VyOxvMS0-2" style="edgeStyle=orthogonalEdgeStyle;rounded=0;orthogonalLoop=1;jettySize=auto;html=1;exitX=0.5;exitY=1;exitDx=0;exitDy=0;" edge="1" parent="1" source="6VcAdiX-hEe_VyOxvMS0-1">
          <mxGeometry relative="1" as="geometry">
            <mxPoint x="200" y="320" as="targetPoint" />
          </mxGeometry>
        </mxCell>
        <mxCell id="6VcAdiX-hEe_VyOxvMS0-1" value="Scan website" style="rounded=1;whiteSpace=wrap;html=1;" vertex="1" parent="1">
          <mxGeometry x="160" y="250" width="80" height="40" as="geometry" />
        </mxCell>
        <mxCell id="6VcAdiX-hEe_VyOxvMS0-4" style="edgeStyle=orthogonalEdgeStyle;rounded=0;orthogonalLoop=1;jettySize=auto;html=1;exitX=0.5;exitY=1;exitDx=0;exitDy=0;" edge="1" parent="1" source="6VcAdiX-hEe_VyOxvMS0-3">
          <mxGeometry relative="1" as="geometry">
            <mxPoint x="200" y="400" as="targetPoint" />
          </mxGeometry>
        </mxCell>
        <mxCell id="6VcAdiX-hEe_VyOxvMS0-3" value="Findings &amp;amp; results" style="rounded=1;whiteSpace=wrap;html=1;" vertex="1" parent="1">
          <mxGeometry x="160" y="320" width="80" height="40" as="geometry" />
        </mxCell>
        <mxCell id="6VcAdiX-hEe_VyOxvMS0-9" style="edgeStyle=orthogonalEdgeStyle;rounded=0;orthogonalLoop=1;jettySize=auto;html=1;exitX=1;exitY=0.5;exitDx=0;exitDy=0;entryX=0;entryY=0.5;entryDx=0;entryDy=0;" edge="1" parent="1" source="6VcAdiX-hEe_VyOxvMS0-6" target="6VcAdiX-hEe_VyOxvMS0-8">
          <mxGeometry relative="1" as="geometry" />
        </mxCell>
        <mxCell id="6VcAdiX-hEe_VyOxvMS0-6" value="IDOR check" style="rounded=1;whiteSpace=wrap;html=1;" vertex="1" parent="1">
          <mxGeometry x="160" y="400" width="80" height="40" as="geometry" />
        </mxCell>
        <mxCell id="6VcAdiX-hEe_VyOxvMS0-15" style="edgeStyle=orthogonalEdgeStyle;rounded=0;orthogonalLoop=1;jettySize=auto;html=1;exitX=1;exitY=0.5;exitDx=0;exitDy=0;entryX=0;entryY=0.5;entryDx=0;entryDy=0;" edge="1" parent="1" source="6VcAdiX-hEe_VyOxvMS0-8" target="6VcAdiX-hEe_VyOxvMS0-10">
          <mxGeometry relative="1" as="geometry" />
        </mxCell>
        <mxCell id="6VcAdiX-hEe_VyOxvMS0-8" value="Session management" style="rounded=1;whiteSpace=wrap;html=1;" vertex="1" parent="1">
          <mxGeometry x="260" y="400" width="80" height="40" as="geometry" />
        </mxCell>
        <mxCell id="6VcAdiX-hEe_VyOxvMS0-16" style="edgeStyle=orthogonalEdgeStyle;rounded=0;orthogonalLoop=1;jettySize=auto;html=1;exitX=0.5;exitY=1;exitDx=0;exitDy=0;entryX=0.5;entryY=0;entryDx=0;entryDy=0;" edge="1" parent="1" source="6VcAdiX-hEe_VyOxvMS0-10" target="6VcAdiX-hEe_VyOxvMS0-11">
          <mxGeometry relative="1" as="geometry" />
        </mxCell>
        <mxCell id="6VcAdiX-hEe_VyOxvMS0-10" value="Forced browsing" style="rounded=1;whiteSpace=wrap;html=1;" vertex="1" parent="1">
          <mxGeometry x="360" y="400" width="80" height="40" as="geometry" />
        </mxCell>
        <mxCell id="6VcAdiX-hEe_VyOxvMS0-17" style="edgeStyle=orthogonalEdgeStyle;rounded=0;orthogonalLoop=1;jettySize=auto;html=1;exitX=0;exitY=0.5;exitDx=0;exitDy=0;entryX=1;entryY=0.5;entryDx=0;entryDy=0;" edge="1" parent="1" source="6VcAdiX-hEe_VyOxvMS0-11" target="6VcAdiX-hEe_VyOxvMS0-13">
          <mxGeometry relative="1" as="geometry" />
        </mxCell>
        <mxCell id="6VcAdiX-hEe_VyOxvMS0-11" value="Test API" style="rounded=1;whiteSpace=wrap;html=1;" vertex="1" parent="1">
          <mxGeometry x="360" y="460" width="80" height="40" as="geometry" />
        </mxCell>
        <mxCell id="6VcAdiX-hEe_VyOxvMS0-18" style="edgeStyle=orthogonalEdgeStyle;rounded=0;orthogonalLoop=1;jettySize=auto;html=1;exitX=0;exitY=0.5;exitDx=0;exitDy=0;entryX=1;entryY=0.5;entryDx=0;entryDy=0;" edge="1" parent="1" source="6VcAdiX-hEe_VyOxvMS0-13" target="6VcAdiX-hEe_VyOxvMS0-14">
          <mxGeometry relative="1" as="geometry" />
        </mxCell>
        <mxCell id="6VcAdiX-hEe_VyOxvMS0-13" value="Weak API controls" style="rounded=1;whiteSpace=wrap;html=1;" vertex="1" parent="1">
          <mxGeometry x="260" y="460" width="80" height="40" as="geometry" />
        </mxCell>
        <mxCell id="6VcAdiX-hEe_VyOxvMS0-14" value="API-IDOR" style="rounded=1;whiteSpace=wrap;html=1;" vertex="1" parent="1">
          <mxGeometry x="160" y="460" width="80" height="40" as="geometry" />
        </mxCell>
        <mxCell id="6VcAdiX-hEe_VyOxvMS0-20" value="Scan website" style="rounded=1;whiteSpace=wrap;html=1;" vertex="1" parent="1">
          <mxGeometry x="260" y="520" width="80" height="40" as="geometry" />
        </mxCell>
      </root>
    </mxGraphModel>
  </diagram>
</mxfile>
